<svg width="23" height="21" viewBox="0 0 23 21" fill="none" xmlns="http://www.w3.org/2000/svg">
<path d="M11.5104 7.32734V11.5061M11.5104 15.6849H11.5208M21.6752 16.7295L13.3177 2.1039C13.1355 1.78235 12.8712 1.51489 12.5519 1.32881C12.2325 1.14273 11.8695 1.04469 11.4999 1.04469C11.1303 1.04469 10.7674 1.14273 10.448 1.32881C10.1287 1.51489 9.86441 1.78235 9.68218 2.1039L1.32466 16.7295C1.14046 17.0486 1.04388 17.4106 1.04469 17.7789C1.04551 18.1473 1.1437 18.5089 1.32931 18.8271C1.51492 19.1453 1.78135 19.4087 2.10159 19.5908C2.42184 19.7728 2.78452 19.8669 3.15287 19.8636H19.8679C20.2345 19.8632 20.5945 19.7664 20.9118 19.5829C21.2292 19.3994 21.4926 19.1356 21.6757 18.818C21.8589 18.5004 21.9552 18.1403 21.9551 17.7737C21.955 17.4071 21.8585 17.047 21.6752 16.7295Z" stroke="#345995" stroke-width="2" stroke-linecap="round" stroke-linejoin="round"/>
</svg>
