<svg width="16" height="21" viewBox="0 0 16 21" fill="none" xmlns="http://www.w3.org/2000/svg">
<path d="M4.36538 12.5C5.00292 12.5 5.61435 12.2366 6.06516 11.7678C6.51597 11.2989 6.76923 10.663 6.76923 10C6.76923 8.62 6.28846 8 5.80769 7C4.77692 4.857 5.59231 2.946 7.73077 1C8.21154 3.5 9.65385 5.9 11.5769 7.5C13.5 9.1 14.4615 11 14.4615 13C14.4615 13.9193 14.2874 14.8295 13.9492 15.6788C13.6109 16.5281 13.1152 17.2997 12.4901 17.9497C11.8651 18.5998 11.1231 19.1154 10.3065 19.4672C9.48991 19.8189 8.61467 20 7.73077 20C6.84687 20 5.97163 19.8189 5.15501 19.4672C4.3384 19.1154 3.59641 18.5998 2.9714 17.9497C2.34639 17.2997 1.8506 16.5281 1.51235 15.6788C1.1741 14.8295 1 13.9193 1 13C1 11.847 1.41635 10.706 1.96154 10C1.96154 10.663 2.2148 11.2989 2.66561 11.7678C3.11642 12.2366 3.72784 12.5 4.36538 12.5Z" stroke="#E85A5A" stroke-width="2" stroke-linecap="round" stroke-linejoin="round"/>
</svg>
