<svg width="16" height="12" viewBox="0 0 16 12" fill="none" xmlns="http://www.w3.org/2000/svg">
<path d="M0.795171 6.26102C0.735065 6.09262 0.735065 5.90739 0.795171 5.73899C1.38057 4.26277 2.37426 3.00057 3.65026 2.1124C4.92625 1.22423 6.4271 0.750092 7.96251 0.750092C9.49793 0.750092 10.9988 1.22423 12.2748 2.1124C13.5508 3.00057 14.5444 4.26277 15.1298 5.73899C15.19 5.90739 15.19 6.09262 15.1298 6.26102C14.5444 7.73724 13.5508 8.99944 12.2748 9.88761C10.9988 10.7758 9.49793 11.2499 7.96251 11.2499C6.4271 11.2499 4.92625 10.7758 3.65026 9.88761C2.37426 8.99944 1.38057 7.73724 0.795171 6.26102Z" stroke="white" stroke-width="1.49992" stroke-linecap="round" stroke-linejoin="round"/>
<path d="M7.96251 8.25017C9.15744 8.25017 10.1261 7.24273 10.1261 6.00001C10.1261 4.75728 9.15744 3.74984 7.96251 3.74984C6.76758 3.74984 5.79889 4.75728 5.79889 6.00001C5.79889 7.24273 6.76758 8.25017 7.96251 8.25017Z" stroke="white" stroke-width="1.49992" stroke-linecap="round" stroke-linejoin="round"/>
</svg>
