<svg width="19" height="19" viewBox="0 0 19 19" fill="none" xmlns="http://www.w3.org/2000/svg">
  <path d="M9.5 2C8.5 2 7.5 2.5 7 3.5L6 5.5C5.5 6.5 5.5 7.5 6 8.5L7 10.5C7.5 11.5 8.5 12 9.5 12C10.5 12 11.5 11.5 12 10.5L13 8.5C13.5 7.5 13.5 6.5 13 5.5L12 3.5C11.5 2.5 10.5 2 9.5 2Z" stroke="currentColor" stroke-width="2" fill="none"/>
  <path d="M6 6L4 4M13 6L15 4M6 9L4 11M13 9L15 11" stroke="currentColor" stroke-width="1.5" stroke-linecap="round"/>
  <circle cx="9.5" cy="7" r="1" fill="currentColor"/>
</svg> 