<svg width="22" height="21" viewBox="0 0 22 21" fill="none" xmlns="http://www.w3.org/2000/svg">
<path d="M2.92093 12.8978C2.20646 12.1387 1.66748 11.2204 1.34481 10.2125C1.02215 9.20457 0.924257 8.13352 1.05856 7.08046C1.19285 6.02739 1.55582 5.01992 2.11996 4.13435C2.6841 3.24878 3.43462 2.50834 4.31468 1.96911C5.19473 1.42989 6.18123 1.10602 7.19947 1.02203C8.2177 0.938046 9.24096 1.09615 10.1917 1.48437C11.1425 1.87258 11.9959 2.48073 12.6872 3.26275C13.3785 4.04477 13.8896 4.98015 14.1818 5.99803H15.9032C16.8317 5.99792 17.7356 6.30839 18.4814 6.88358C19.2272 7.45876 19.7753 8.26816 20.0448 9.19221C20.3143 10.1163 20.2909 11.106 19.978 12.0151C19.6652 12.9243 19.0794 13.7046 18.3073 14.241M7.92151 19.9997L10.8065 12.9988M7.72918 10.9986L4.84423 17.9994M15.4224 10.9986L12.5374 17.9994" stroke="#73C086" stroke-width="2" stroke-linecap="round" stroke-linejoin="round"/>
</svg>
