<svg width="11" height="16" viewBox="0 0 11 16" fill="none" xmlns="http://www.w3.org/2000/svg">
<path d="M0.727181 5.45445C0.727181 4.2007 1.20607 2.9983 2.05851 2.11177C2.91095 1.22523 4.0671 0.727181 5.27263 0.727181C6.47816 0.727181 7.63431 1.22523 8.48674 2.11177C9.33918 2.9983 9.81808 4.2007 9.81808 5.45445C9.81808 9.81808 5.62228 9.81808 5.62228 12.7272C5.62228 13.0614 5.55897 13.3924 5.43597 13.7013C5.31297 14.0101 5.13268 14.2907 4.90541 14.5271C4.67813 14.7634 4.40832 14.9509 4.11137 15.0789C3.81442 15.2068 3.49615 15.2726 3.17473 15.2726C2.85331 15.2726 2.53504 15.2068 2.23809 15.0789C1.94114 14.9509 1.67133 14.7634 1.44405 14.5271C1.21678 14.2907 1.03649 14.0101 0.91349 13.7013C0.790489 13.3924 0.727181 13.0614 0.727181 12.7272M7.02088 5.45445C7.02088 4.97224 6.83669 4.50977 6.50883 4.1688C6.18097 3.82782 5.73629 3.63627 5.27263 3.63627C4.80896 3.63627 4.36429 3.82782 4.03643 4.1688C3.70857 4.50977 3.52438 4.97224 3.52438 5.45445V6.18172C3.89531 6.18172 4.25105 6.33496 4.51334 6.60774C4.77563 6.88052 4.92298 7.25049 4.92298 7.63626C4.92298 8.02203 4.77563 8.392 4.51334 8.66478C4.25105 8.93756 3.89531 9.0908 3.52438 9.0908" stroke="white" stroke-width="1.41033" stroke-linecap="round" stroke-linejoin="round"/>
</svg>
