<svg width="27" height="31" viewBox="0 0 27 31" fill="none" xmlns="http://www.w3.org/2000/svg">
<path d="M15.8063 26.9353C16.3355 26.456 17.1524 26.4462 17.6944 26.9343C18.2725 27.455 18.3189 28.3452 17.7984 28.9234L17.5618 29.1738C15.1552 31.5923 11.5142 31.6246 9.08184 29.1758L8.84228 28.9225L8.75195 28.8105C8.33081 28.2338 8.40664 27.4199 8.94929 26.9323C9.49206 26.4452 10.309 26.4569 10.8373 26.9372L10.9394 27.0393L11.07 27.1778C12.44 28.5668 14.3792 28.5093 15.7042 27.0384L15.8063 26.9353ZM13.3861 0C19.8339 0.000105847 24.2093 5.05942 24.2097 9.7858C24.2097 10.9152 24.3529 11.6916 24.5416 12.2767C24.7312 12.8643 24.9844 13.3186 25.2917 13.8329C25.5885 14.3297 25.9856 14.956 26.2794 15.7248C26.5853 16.5253 26.7722 17.4479 26.7723 18.6291L26.7674 18.7508C26.6604 19.9836 26.2911 21.0882 25.5745 22.0154C24.8615 22.9375 23.8843 23.5799 22.735 24.0301C20.5042 24.9037 17.3541 25.1483 13.3861 25.1483C9.42026 25.1483 6.27007 24.9084 4.03921 24.0369C2.88939 23.5878 1.91236 22.9448 1.1988 22.0213C0.571205 21.2088 0.210133 20.2599 0.0579274 19.2074L0.0049091 18.7508C0.00143389 18.7106 1.24517e-05 18.6694 0 18.6291C4.9176e-05 17.4479 0.187024 16.5253 0.492874 15.7248C0.786726 14.9561 1.18379 14.3296 1.48059 13.8329C1.78779 13.3186 2.04111 12.8643 2.2307 12.2767C2.4194 11.6916 2.56255 10.9151 2.56255 9.7858C2.563 5.05937 6.93832 0 13.3861 0ZM13.3861 2.81782C8.43456 2.81782 5.38184 6.67534 5.38136 9.7858C5.38136 11.1643 5.20371 12.2375 4.91205 13.1417C4.62121 14.0431 4.23313 14.7202 3.89979 15.2781C3.5562 15.8532 3.31269 16.2423 3.12612 16.7302C2.95623 17.1748 2.82568 17.7354 2.81881 18.5603C2.89475 19.3485 3.11523 19.8925 3.42852 20.2982C3.75267 20.7178 4.2577 21.0964 5.06423 21.4115C6.74668 22.0688 9.40734 22.3305 13.3861 22.3305C17.3637 22.3305 20.0246 22.0654 21.7071 21.4066C22.5141 21.0905 23.0204 20.7108 23.3447 20.2913C23.6579 19.886 23.877 19.3436 23.9525 18.5603C23.9456 17.7354 23.8161 17.1748 23.6462 16.7302C23.4596 16.2423 23.2161 15.8533 22.8725 15.2781C22.5391 14.7201 22.1511 14.0432 21.8602 13.1417C21.5686 12.2375 21.3909 11.1643 21.3909 9.7858C21.3904 6.67538 18.3376 2.81793 13.3861 2.81782Z" fill="#444444"/>
</svg>
