<svg width="15" height="15" viewBox="0 0 15 15" fill="none" xmlns="http://www.w3.org/2000/svg">
<path d="M11.3793 5.56034H12.6724C13.0154 5.56034 13.3443 5.69658 13.5868 5.93909C13.8293 6.18159 13.9655 6.5105 13.9655 6.85345V13.9655L11.3793 11.3793H7.5C7.15705 11.3793 6.82814 11.2431 6.58564 11.0006C6.34313 10.7581 6.2069 10.4292 6.2069 10.0862V9.43966M8.7931 5.56034C8.7931 5.9033 8.65687 6.2322 8.41436 6.47471C8.17186 6.71721 7.84295 6.85345 7.5 6.85345H3.62069L1.03448 9.43966V2.32759C1.03448 1.98463 1.17072 1.65573 1.41322 1.41322C1.65573 1.17072 1.98463 1.03448 2.32759 1.03448H7.5C7.84295 1.03448 8.17186 1.17072 8.41436 1.41322C8.65687 1.65573 8.7931 1.98463 8.7931 2.32759V5.56034Z" stroke="#444444" stroke-width="2" stroke-linecap="round" stroke-linejoin="round"/>
</svg>
