<svg width="42" height="42" viewBox="0 0 42 42" fill="none" xmlns="http://www.w3.org/2000/svg">
<path d="M20.177 35.9565C20.7033 35.4798 21.5158 35.4701 22.0549 35.9556C22.6299 36.4735 22.6761 37.3589 22.1584 37.9341L21.9231 38.1831C19.5294 40.5887 15.9078 40.6207 13.4885 38.1851L13.2502 37.9331L13.1604 37.8218C12.7415 37.2481 12.8169 36.4386 13.3567 35.9536C13.8965 35.4691 14.7091 35.4808 15.2346 35.9585L15.3362 36.0601L15.4661 36.1978C16.8287 37.5794 18.7575 37.5221 20.0754 36.0591L20.177 35.9565ZM17.7698 9.16553C24.183 9.16563 28.535 14.1979 28.5354 18.8989C28.5354 20.0223 28.6778 20.7945 28.8655 21.3765C29.0541 21.961 29.306 22.4128 29.6116 22.9243C29.9068 23.4184 30.3017 24.0415 30.594 24.8062C30.8982 25.6023 31.0842 26.52 31.0842 27.6948L31.0793 27.8159C30.9729 29.0421 30.6056 30.1408 29.8928 31.063C29.1837 31.9802 28.2117 32.6192 27.0686 33.0669C24.8497 33.9359 21.7165 34.1792 17.7698 34.1792C13.8251 34.1792 10.6918 33.9405 8.4729 33.0737C7.32924 32.627 6.35744 31.9875 5.64771 31.0688C5.02347 30.2607 4.66433 29.317 4.51294 28.27L4.46021 27.8159C4.45675 27.7759 4.45533 27.735 4.45532 27.6948C4.45537 26.52 4.64135 25.6023 4.94556 24.8062C5.23783 24.0415 5.63277 23.4184 5.92798 22.9243C6.23354 22.4128 6.4855 21.9609 6.67407 21.3765C6.86177 20.7945 7.00415 20.0222 7.00415 18.8989C7.0046 14.1978 11.3565 9.16553 17.7698 9.16553ZM17.7698 11.9683C12.8447 11.9683 9.80834 15.8051 9.80786 18.8989C9.80786 20.27 9.63116 21.3375 9.34106 22.2368C9.05179 23.1334 8.66578 23.8068 8.33423 24.3618C7.99247 24.9338 7.75027 25.3209 7.5647 25.8062C7.39572 26.2483 7.26587 26.8059 7.25903 27.6265C7.33457 28.4104 7.55387 28.9515 7.86548 29.355C8.1879 29.7723 8.69022 30.149 9.49243 30.4624C11.1659 31.1161 13.8123 31.3765 17.7698 31.3765C21.726 31.3765 24.3727 31.1127 26.0461 30.4575C26.8488 30.1431 27.3524 29.7654 27.675 29.3481C27.9866 28.945 28.2044 28.4056 28.2795 27.6265C28.2727 26.8059 28.1438 26.2483 27.9749 25.8062C27.7893 25.3208 27.5471 24.9339 27.2053 24.3618C26.8737 23.8068 26.4878 23.1335 26.1985 22.2368C25.9084 21.3374 25.7317 20.2701 25.7317 18.8989C25.7312 15.8052 22.6947 11.9684 17.7698 11.9683Z" fill="#444444"/>
<rect x="31" y="5" width="6" height="6" rx="3" fill="#EF4444"/>
</svg>
