<svg width="15" height="14" viewBox="0 0 15 14" fill="none" xmlns="http://www.w3.org/2000/svg">
<path d="M11.3793 12.6724C11.3793 11.3006 10.8344 9.98498 9.86435 9.01496C8.89433 8.04495 7.57871 7.5 6.2069 7.5M6.2069 7.5C4.83509 7.5 3.51946 8.04495 2.54945 9.01496C1.57943 9.98498 1.03448 11.3006 1.03448 12.6724M6.2069 7.5C7.9923 7.5 9.43966 6.05264 9.43966 4.26724C9.43966 2.48184 7.9923 1.03448 6.2069 1.03448C4.42149 1.03448 2.97414 2.48184 2.97414 4.26724C2.97414 6.05264 4.42149 7.5 6.2069 7.5ZM13.9655 12.0259C13.9655 9.84698 12.6724 7.82328 11.3793 6.85345C11.8044 6.53455 12.1443 6.11579 12.3689 5.63423C12.5935 5.15266 12.696 4.62315 12.6673 4.09254C12.6385 3.56194 12.4794 3.04661 12.204 2.59215C11.9286 2.1377 11.5454 1.75814 11.0884 1.48707" stroke="#444444" stroke-width="2" stroke-linecap="round" stroke-linejoin="round"/>
</svg>
