<svg width="43" height="43" viewBox="0 0 43 43" fill="none" xmlns="http://www.w3.org/2000/svg">
<g filter="url(#filter0_d_359_3385)">
<path d="M7.5668 25.2435C6.24009 23.8879 5.23925 22.2483 4.64008 20.4487C4.04091 18.6491 3.85913 16.7367 4.10852 14.8565C4.3579 12.9762 5.0319 11.1774 6.07947 9.5962C7.12704 8.01501 8.5207 6.69295 10.1549 5.73015C11.7891 4.76736 13.621 4.18909 15.5117 4.03913C17.4025 3.88917 19.3026 4.17147 21.0682 4.86463C22.8337 5.5578 24.4183 6.64365 25.702 8.03995C26.9857 9.43625 27.9349 11.1064 28.4775 12.9238H31.6739C33.3981 12.9236 35.0765 13.478 36.4614 14.505C37.8463 15.532 38.8642 16.9771 39.3646 18.627C39.8651 20.2769 39.8216 22.044 39.2406 23.6673C38.6596 25.2906 37.5719 26.684 36.1382 27.6417M28.9954 23.6381V27.2095M14.7097 23.6381V27.2095M28.9954 34.3524H29.0132M14.7097 34.3524H14.7275M21.8525 27.2095V30.781M21.8525 37.9238H21.8704" stroke="#E18700" stroke-width="3.57143" stroke-linecap="round" stroke-linejoin="round" shape-rendering="crispEdges"/>
</g>
<defs>
<filter id="filter0_d_359_3385" x="-1.78564" y="-0.785706" width="47.282" height="45.4952" filterUnits="userSpaceOnUse" color-interpolation-filters="sRGB">
<feFlood flood-opacity="0" result="BackgroundImageFix"/>
<feColorMatrix in="SourceAlpha" type="matrix" values="0 0 0 0 0 0 0 0 0 0 0 0 0 0 0 0 0 0 127 0" result="hardAlpha"/>
<feOffset dy="1"/>
<feGaussianBlur stdDeviation="2"/>
<feComposite in2="hardAlpha" operator="out"/>
<feColorMatrix type="matrix" values="0 0 0 0 0 0 0 0 0 0 0 0 0 0 0 0 0 0 0.25 0"/>
<feBlend mode="normal" in2="BackgroundImageFix" result="effect1_dropShadow_359_3385"/>
<feBlend mode="normal" in="SourceGraphic" in2="effect1_dropShadow_359_3385" result="shape"/>
</filter>
</defs>
</svg>
