<svg width="43" height="41" viewBox="0 0 43 41" fill="none" xmlns="http://www.w3.org/2000/svg">
<g filter="url(#filter0_d_359_3380)">
<path d="M23.2857 32.8571C23.7384 33.1967 24.2654 33.4238 24.8231 33.5197C25.3808 33.6157 25.9533 33.5777 26.4935 33.409C27.0336 33.2402 27.5259 32.9456 27.9299 32.5492C28.3338 32.1529 28.6378 31.6662 28.8167 31.1294C28.9957 30.5925 29.0445 30.0208 28.9592 29.4614C28.8738 28.902 28.6568 28.3708 28.3259 27.9117C27.995 27.4527 27.5597 27.0788 27.056 26.8209C26.5523 26.563 25.9945 26.4286 25.4286 26.4286H4M31.6786 12.1429C32.1352 11.5341 32.7398 11.0521 33.435 10.7427C34.1302 10.4334 34.893 10.3068 35.6509 10.3752C36.4088 10.4435 37.1367 10.7045 37.7653 11.1332C38.394 11.562 38.9027 12.1443 39.243 12.8249C39.5833 13.5056 39.744 14.2619 39.7098 15.0221C39.6756 15.7823 39.4476 16.5211 39.0476 17.1684C38.6475 17.8158 38.0886 18.3501 37.424 18.7206C36.7593 19.0912 36.011 19.2857 35.25 19.2857H4M17.9286 5.71429C18.3813 5.37475 18.9082 5.14765 19.4659 5.0517C20.0236 4.95576 20.5962 4.99372 21.1363 5.16245C21.6765 5.33118 22.1688 5.62586 22.5727 6.0222C22.9767 6.41853 23.2806 6.90518 23.4596 7.44204C23.6385 7.9789 23.6874 8.5506 23.602 9.11003C23.5167 9.66946 23.2996 10.2006 22.9687 10.6597C22.6378 11.1188 22.2026 11.4926 21.6989 11.7505C21.1951 12.0084 20.6373 12.1429 20.0714 12.1429H4" stroke="#E18700" stroke-width="3.57143" stroke-linecap="round" stroke-linejoin="round" shape-rendering="crispEdges"/>
</g>
<defs>
<filter id="filter0_d_359_3380" x="-1.78564" y="0.214294" width="47.2856" height="40.1429" filterUnits="userSpaceOnUse" color-interpolation-filters="sRGB">
<feFlood flood-opacity="0" result="BackgroundImageFix"/>
<feColorMatrix in="SourceAlpha" type="matrix" values="0 0 0 0 0 0 0 0 0 0 0 0 0 0 0 0 0 0 127 0" result="hardAlpha"/>
<feOffset dy="1"/>
<feGaussianBlur stdDeviation="2"/>
<feComposite in2="hardAlpha" operator="out"/>
<feColorMatrix type="matrix" values="0 0 0 0 0 0 0 0 0 0 0 0 0 0 0 0 0 0 0.25 0"/>
<feBlend mode="normal" in2="BackgroundImageFix" result="effect1_dropShadow_359_3380"/>
<feBlend mode="normal" in="SourceGraphic" in2="effect1_dropShadow_359_3380" result="shape"/>
</filter>
</defs>
</svg>
