<svg width="26" height="22" viewBox="0 0 26 22" fill="none" xmlns="http://www.w3.org/2000/svg">
<path d="M9.61069 20.4744V16.0596L11.7372 16.275C12.3563 16.2419 12.9422 15.9949 13.3871 15.5795C13.8321 15.1641 14.1062 14.6081 14.1592 14.0137V7.87607C14.1666 6.3248 13.5332 4.83422 12.3983 3.73226C11.2634 2.63029 9.71999 2.0072 8.10758 2.00006C6.49517 1.99292 4.94585 2.60232 3.80046 3.69419C2.65507 4.78606 2.00742 6.27096 2 7.82223C2 10.8372 2.73421 11.1107 3.11922 12.7216C3.37942 13.6944 3.39056 14.7135 3.15168 15.6914L2 20.4744M21.9221 18.1055C23.4955 16.5916 24.3797 14.5385 24.3804 12.3976C24.381 10.2567 23.498 8.20317 21.9255 6.68838M18.7883 15.0905C19.1545 14.7383 19.4444 14.3197 19.6414 13.859C19.8384 13.3983 19.9385 12.9046 19.9359 12.4064C19.9333 11.9082 19.828 11.4155 19.6262 10.9567C19.4245 10.4979 19.1301 10.0822 18.7603 9.73353" stroke="#444444" stroke-width="2.23844" stroke-linecap="round" stroke-linejoin="round"/>
</svg>
