<svg width="61" height="54" viewBox="0 0 61 54" fill="none" xmlns="http://www.w3.org/2000/svg">
<path d="M1.32219 22.36L1.67419 7.416C1.67419 5.90133 1.62085 5.06933 1.51419 4.92C1.40752 4.74933 1.21552 4.344 0.938188 3.704C0.660854 3.04267 0.522188 2.616 0.522188 2.424C0.522188 2.33867 0.735521 2.22133 1.16219 2.072C2.31419 1.64533 3.32752 1.432 4.20219 1.432C5.09819 1.432 5.56752 1.464 5.61019 1.528C5.65285 1.57067 5.67419 1.98667 5.67419 2.776C5.67419 3.544 5.62085 5.528 5.51419 8.728C5.51419 8.856 5.53552 8.92 5.57819 8.92C5.62085 8.92 5.67419 8.87733 5.73819 8.792C6.93285 7.21333 8.37285 5.50667 10.0582 3.672C11.7435 1.816 12.7569 0.887999 13.0982 0.887999C13.4609 0.887999 13.9195 1.00533 14.4742 1.24C15.0289 1.47467 15.4875 1.73067 15.8502 2.008C16.2342 2.264 16.4262 2.43467 16.4262 2.52V2.552C15.5942 3.08533 14.6662 3.82133 13.6422 4.76C12.6182 5.69867 11.7862 6.52 11.1462 7.224C10.5062 7.928 10.1862 8.33333 10.1862 8.44C10.1862 9.22933 11.0502 11.5333 12.7782 15.352C14.5275 19.1493 15.9569 21.6133 17.0662 22.744C17.0875 22.7653 17.0342 22.84 16.9062 22.968C16.7995 23.0747 16.6182 23.2027 16.3622 23.352C16.1062 23.5227 15.8182 23.6827 15.4982 23.832C14.7515 24.216 13.9622 24.408 13.1302 24.408C12.3622 23.64 11.5089 22.2107 10.5702 20.12C9.63152 18.008 8.85285 16.0987 8.23419 14.392C7.63685 12.6853 7.31685 11.832 7.27419 11.832C7.16752 11.832 6.82619 12.28 6.25019 13.176C5.69552 14.0507 5.41819 14.5733 5.41819 14.744V16.824C5.41819 20.4933 5.48219 22.6373 5.61019 23.256C5.63152 23.32 5.51419 23.416 5.25819 23.544C4.53285 23.9067 3.61552 24.088 2.50619 24.088L1.41819 23.928C1.35419 23.864 1.32219 23.3413 1.32219 22.36ZM30.1412 15.864C30.1412 18.5307 30.1732 20.088 30.2372 20.536C30.4079 21.7093 30.7705 22.552 31.3252 23.064C31.3252 23.2987 30.8985 23.6507 30.0452 24.12C29.2132 24.5893 28.4559 24.824 27.7732 24.824C27.5812 24.824 27.3785 24.536 27.1652 23.96C26.9519 23.4053 26.8239 22.9893 26.7812 22.712C26.7599 22.4347 26.7385 22.296 26.7172 22.296L26.6212 22.36C25.4905 23.256 24.1679 23.704 22.6532 23.704C21.1385 23.704 19.9652 23.3413 19.1332 22.616C18.3225 21.8693 17.9172 20.8987 17.9172 19.704C17.9172 18.5093 18.1732 17.5067 18.6852 16.696C19.2185 15.864 19.8372 15.2347 20.5412 14.808C21.2452 14.3813 22.0239 14.04 22.8772 13.784C24.1785 13.3573 25.2025 13.144 25.9492 13.144L26.0132 13.112C26.0132 12.0667 24.6905 11.544 22.0452 11.544C20.9999 11.544 20.2212 11.5867 19.7092 11.672H19.6772C19.6772 11.2453 19.8052 10.712 20.0612 10.072C20.3385 9.432 20.5625 9.016 20.7332 8.824C20.9252 8.632 21.6932 8.536 23.0372 8.536C25.4692 8.536 27.2612 9.00533 28.4132 9.944C29.5652 10.8613 30.1412 12.2907 30.1412 14.232V15.864ZM26.5892 17.912V16.696C26.5892 16.2267 26.5785 15.992 26.5572 15.992C25.1279 15.992 23.8905 16.3653 22.8452 17.112C22.1839 17.5813 21.8532 18.168 21.8532 18.872C21.8532 19.32 22.0132 19.6933 22.3332 19.992C22.6532 20.2907 23.1332 20.44 23.7732 20.44C24.4345 20.44 25.0639 20.248 25.6612 19.864C26.2799 19.48 26.5892 18.8293 26.5892 17.912ZM37.0207 7.48L36.9887 8.984C42.6634 8.984 45.5007 11.1813 45.5007 15.576C45.5007 16.7707 45.2554 17.8587 44.7647 18.84C44.2954 19.8 43.7087 20.568 43.0047 21.144C42.3007 21.6987 41.5327 22.168 40.7007 22.552C39.2714 23.2133 37.9914 23.544 36.8607 23.544V24.024C36.8607 27.224 36.946 29.3573 37.1167 30.424C36.8394 30.7013 36.3594 30.9147 35.6767 31.064C34.994 31.2347 34.4394 31.32 34.0127 31.32C33.586 31.32 33.3727 31.288 33.3727 31.224C33.2874 30.5413 33.2447 29.1333 33.2447 27L33.4047 12.12C33.4047 10.3707 33.3727 9.15467 33.3087 8.472C33.5647 8.216 33.9914 7.97067 34.5887 7.736C35.2074 7.50133 35.7407 7.384 36.1887 7.384C36.6367 7.384 36.914 7.416 37.0207 7.48ZM36.8607 18.392L36.8927 19.992C38.194 19.992 39.3354 19.6187 40.3167 18.872C41.298 18.1253 41.7887 17.048 41.7887 15.64C41.7887 13.336 40.178 12.184 36.9567 12.184L36.9247 12.6C36.9247 12.8773 36.9247 13.24 36.9247 13.688L36.8607 18.392ZM50.3329 3.896C50.9303 3.896 51.4103 4.088 51.7729 4.472C52.1356 4.856 52.3169 5.35733 52.3169 5.976C52.3169 6.59467 52.0716 7.128 51.5809 7.576C51.1116 8.00267 50.5783 8.216 49.9809 8.216C49.4049 8.216 48.9356 8.03467 48.5729 7.672C48.2316 7.288 48.0609 6.78667 48.0609 6.168C48.0609 5.54933 48.2956 5.016 48.7649 4.568C49.2343 4.12 49.7569 3.896 50.3329 3.896ZM51.9649 11.864L51.9009 17.048C51.9009 18.712 51.9436 19.9387 52.0289 20.728C52.1356 21.496 52.4129 22.2213 52.8609 22.904C52.8609 23.1173 52.4236 23.4587 51.5489 23.928C50.6743 24.3973 49.9276 24.632 49.3089 24.632C49.1169 24.632 48.9249 24.312 48.7329 23.672C48.5409 23.032 48.4129 22.424 48.3489 21.848C48.3063 21.272 48.2849 19.3307 48.2849 16.024C48.2849 12.7173 48.3596 10.9147 48.5089 10.616C48.9996 10.232 49.8636 10.04 51.1009 10.04C51.5916 10.04 51.8903 10.104 51.9969 10.232L51.9649 11.864ZM57.1722 7.064C56.8735 7.21333 56.5429 7.288 56.1802 7.288C55.8389 7.288 55.5189 7.21333 55.2202 7.064C55.2202 6.21067 55.0282 4.792 54.6442 2.808L54.4522 1.816C54.8362 1.53867 55.4229 1.4 56.2122 1.4C57.0015 1.4 57.5882 1.51733 57.9722 1.752C57.4389 4.39733 57.1722 6.168 57.1722 7.064Z" fill="#E85A5A"/>
<path d="M11.1798 39.584C12.6091 39.584 13.3451 39.7227 13.3878 40C14.0918 43.9893 14.6571 46.4213 15.0838 47.296H15.2118C15.6811 46.2933 16.2038 44.544 16.7798 42.048C17.3558 39.552 17.6864 37.7813 17.7718 36.736C19.0518 36.736 20.0971 36.96 20.9078 37.408C21.1638 37.536 21.2918 37.6213 21.2918 37.664C21.2918 38.6027 20.9611 40.256 20.2998 42.624C19.6598 44.992 19.0091 47.1467 18.3478 49.088C17.7078 51.008 17.3451 52.0107 17.2598 52.096C17.1744 52.1813 16.8011 52.2667 16.1398 52.352C15.4784 52.4587 14.8704 52.512 14.3158 52.512C13.7611 52.512 13.3984 52.4693 13.2278 52.384C13.0358 52.192 12.6838 51.1573 12.1718 49.28C11.6598 47.4027 11.3078 45.8133 11.1158 44.512H11.0198C10.6998 45.8133 10.2624 47.3493 9.70775 49.12C9.17442 50.8907 8.84375 51.8507 8.71575 52C8.58775 52.128 8.16108 52.256 7.43575 52.384C6.71042 52.5333 6.13442 52.608 5.70775 52.608C5.28108 52.608 5.03575 52.576 4.97175 52.512C4.80108 52.3627 4.16108 50.2507 3.05175 46.176C1.94242 42.1013 1.38775 39.552 1.38775 38.528C1.38775 38.4853 1.49442 38.4 1.70775 38.272C1.94242 38.1227 2.33708 37.984 2.89175 37.856C3.46775 37.7067 4.10775 37.632 4.81175 37.632C5.60108 42.2827 6.32642 45.344 6.98775 46.816C7.03042 46.9227 7.08375 46.9227 7.14775 46.816C7.51042 46.112 7.88375 45.024 8.26775 43.552C8.65175 42.08 8.88642 40.896 8.97175 40C8.99308 39.8933 9.24908 39.7973 9.73975 39.712C10.2304 39.6267 10.7104 39.584 11.1798 39.584ZM34.8678 44.864C34.8678 47.5307 34.8998 49.088 34.9638 49.536C35.1344 50.7093 35.4971 51.552 36.0518 52.064C36.0518 52.2987 35.6251 52.6507 34.7718 53.12C33.9398 53.5893 33.1824 53.824 32.4998 53.824C32.3078 53.824 32.1051 53.536 31.8918 52.96C31.6784 52.4053 31.5504 51.9893 31.5078 51.712C31.4864 51.4347 31.4651 51.296 31.4438 51.296L31.3478 51.36C30.2171 52.256 28.8944 52.704 27.3798 52.704C25.8651 52.704 24.6918 52.3413 23.8598 51.616C23.0491 50.8693 22.6438 49.8987 22.6438 48.704C22.6438 47.5093 22.8998 46.5067 23.4118 45.696C23.9451 44.864 24.5638 44.2347 25.2678 43.808C25.9718 43.3813 26.7504 43.04 27.6038 42.784C28.9051 42.3573 29.9291 42.144 30.6758 42.144L30.7398 42.112C30.7398 41.0667 29.4171 40.544 26.7718 40.544C25.7264 40.544 24.9478 40.5867 24.4358 40.672H24.4038C24.4038 40.2453 24.5318 39.712 24.7878 39.072C25.0651 38.432 25.2891 38.016 25.4598 37.824C25.6518 37.632 26.4198 37.536 27.7638 37.536C30.1958 37.536 31.9878 38.0053 33.1398 38.944C34.2918 39.8613 34.8678 41.2907 34.8678 43.232V44.864ZM31.3158 46.912V45.696C31.3158 45.2267 31.3051 44.992 31.2838 44.992C29.8544 44.992 28.6171 45.3653 27.5718 46.112C26.9104 46.5813 26.5798 47.168 26.5798 47.872C26.5798 48.32 26.7398 48.6933 27.0598 48.992C27.3798 49.2907 27.8598 49.44 28.4998 49.44C29.1611 49.44 29.7904 49.248 30.3878 48.864C31.0064 48.48 31.3158 47.8293 31.3158 46.912ZM38.1953 47.68L38.1313 40.416C38.1313 39.1573 38.1739 38.4853 38.2593 38.4C38.4939 38.1653 38.8993 37.9627 39.4753 37.792C40.0513 37.6 40.5846 37.504 41.0753 37.504C41.5873 37.504 41.8433 37.5573 41.8433 37.664C41.7793 38.24 41.7473 38.9013 41.7473 39.648C41.7473 40.3733 41.7686 40.736 41.8113 40.736C41.8539 40.736 41.8966 40.7147 41.9393 40.672C41.9819 40.608 42.0459 40.5227 42.1313 40.416C42.2379 40.288 42.4406 40.0747 42.7393 39.776C43.0593 39.4773 43.4006 39.2213 43.7633 39.008C44.6806 38.4107 45.6619 38.112 46.7073 38.112C46.8779 38.3893 46.9633 38.816 46.9633 39.392C46.9633 40.608 46.8139 41.472 46.5153 41.984L46.3873 42.24L45.9713 42.176C44.4353 42.176 43.2299 42.8053 42.3553 44.064C42.0139 44.576 41.8433 44.96 41.8433 45.216V48.032C41.8433 50.592 41.8113 51.904 41.7473 51.968C41.1499 52.544 39.9766 52.832 38.2273 52.832C38.0566 52.832 37.9713 52.8 37.9713 52.736C38.1206 51.904 38.1953 50.2187 38.1953 47.68ZM59.024 44.864C59.024 47.5307 59.056 49.088 59.12 49.536C59.2907 50.7093 59.6533 51.552 60.208 52.064C60.208 52.2987 59.7813 52.6507 58.928 53.12C58.096 53.5893 57.3387 53.824 56.656 53.824C56.464 53.824 56.2613 53.536 56.048 52.96C55.8347 52.4053 55.7067 51.9893 55.664 51.712C55.6427 51.4347 55.6213 51.296 55.6 51.296L55.504 51.36C54.3733 52.256 53.0507 52.704 51.536 52.704C50.0213 52.704 48.848 52.3413 48.016 51.616C47.2053 50.8693 46.8 49.8987 46.8 48.704C46.8 47.5093 47.056 46.5067 47.568 45.696C48.1013 44.864 48.72 44.2347 49.424 43.808C50.128 43.3813 50.9067 43.04 51.76 42.784C53.0613 42.3573 54.0853 42.144 54.832 42.144L54.896 42.112C54.896 41.0667 53.5733 40.544 50.928 40.544C49.8827 40.544 49.104 40.5867 48.592 40.672H48.56C48.56 40.2453 48.688 39.712 48.944 39.072C49.2213 38.432 49.4453 38.016 49.616 37.824C49.808 37.632 50.576 37.536 51.92 37.536C54.352 37.536 56.144 38.0053 57.296 38.944C58.448 39.8613 59.024 41.2907 59.024 43.232V44.864ZM55.472 46.912V45.696C55.472 45.2267 55.4613 44.992 55.44 44.992C54.0107 44.992 52.7733 45.3653 51.728 46.112C51.0667 46.5813 50.736 47.168 50.736 47.872C50.736 48.32 50.896 48.6933 51.216 48.992C51.536 49.2907 52.016 49.44 52.656 49.44C53.3173 49.44 53.9467 49.248 54.544 48.864C55.1627 48.48 55.472 47.8293 55.472 46.912Z" fill="#73C086"/>
</svg>
