<svg width="30" height="32" viewBox="0 0 30 32" fill="none" xmlns="http://www.w3.org/2000/svg">
<path d="M16.1771 27.9565C16.7034 27.4798 17.5159 27.4701 18.055 27.9556C18.63 28.4735 18.6762 29.3589 18.1585 29.9341L17.9232 30.1831C15.5295 32.5887 11.9079 32.6207 9.48859 30.1851L9.25031 29.9331L9.16046 29.8218C8.74158 29.2481 8.817 28.4386 9.35675 27.9536C9.89661 27.4691 10.7091 27.4808 11.2347 27.9585L11.3362 28.0601L11.4661 28.1978C12.8288 29.5794 14.7575 29.5221 16.0755 28.0591L16.1771 27.9565ZM13.7698 1.16553C20.183 1.16563 24.535 6.19785 24.5355 10.8989C24.5355 12.0223 24.6778 12.7945 24.8655 13.3765C25.0541 13.961 25.306 14.4128 25.6116 14.9243C25.9069 15.4184 26.3018 16.0415 26.5941 16.8062C26.8983 17.6023 27.0842 18.52 27.0843 19.6948L27.0794 19.8159C26.973 21.0421 26.6057 22.1408 25.8929 23.063C25.1837 23.9802 24.2118 24.6192 23.0687 25.0669C20.8498 25.9359 17.7166 26.1792 13.7698 26.1792C9.8252 26.1792 6.69187 25.9405 4.47296 25.0737C3.3293 24.627 2.3575 23.9875 1.64777 23.0688C1.02353 22.2607 0.664391 21.317 0.513 20.27L0.460266 19.8159C0.45681 19.7759 0.455396 19.735 0.455383 19.6948C0.455432 18.52 0.641406 17.6023 0.945618 16.8062C1.2379 16.0415 1.63283 15.4184 1.92804 14.9243C2.2336 14.4128 2.48556 13.9609 2.67413 13.3765C2.86183 12.7945 3.00421 12.0222 3.00421 10.8989C3.00466 6.1978 7.35654 1.16553 13.7698 1.16553ZM13.7698 3.96826C8.84477 3.96826 5.8084 7.80511 5.80792 10.8989C5.80792 12.27 5.63122 13.3375 5.34113 14.2368C5.05185 15.1334 4.66584 15.8068 4.33429 16.3618C3.99253 16.9338 3.75033 17.3209 3.56476 17.8062C3.39578 18.2483 3.26593 18.8059 3.25909 19.6265C3.33463 20.4104 3.55393 20.9515 3.86554 21.355C4.18796 21.7723 4.69028 22.149 5.49249 22.4624C7.16593 23.1161 9.81234 23.3765 13.7698 23.3765C17.7261 23.3765 20.3727 23.1127 22.0462 22.4575C22.8489 22.1431 23.3525 21.7654 23.6751 21.3481C23.9866 20.945 24.2045 20.4056 24.2796 19.6265C24.2728 18.8059 24.1439 18.2483 23.9749 17.8062C23.7893 17.3208 23.5472 16.9339 23.2054 16.3618C22.8738 15.8068 22.4879 15.1335 22.1985 14.2368C21.9084 13.3374 21.7318 12.2701 21.7318 10.8989C21.7313 7.80516 18.6948 3.96837 13.7698 3.96826Z" fill="#444444"/>
</svg>
