<svg width="45" height="37" viewBox="0 0 45 37" fill="none" xmlns="http://www.w3.org/2000/svg">
<g filter="url(#filter0_d_421_820)">
<path d="M31.5743 30H17.5481C15.406 29.9994 13.3062 29.3542 11.4834 28.1366C9.66064 26.9189 8.18666 25.1767 7.22619 23.1047C6.26572 21.0326 5.8566 18.7124 6.04455 16.4033C6.2325 14.0941 7.01011 11.887 8.29049 10.0285C9.57087 8.1701 11.3036 6.73356 13.295 5.87944C15.2864 5.02532 17.4581 4.78728 19.5673 5.1919C21.6765 5.59653 23.6402 6.62789 25.239 8.17073C26.8377 9.71357 28.0085 11.7071 28.6206 13.9286H31.5743C33.5437 13.9286 35.4325 14.7752 36.8251 16.2822C38.2177 17.7892 39 19.8331 39 21.9643C39 24.0955 38.2177 26.1394 36.8251 27.6464C35.4325 29.1534 33.5437 30 31.5743 30Z" stroke="#ADAFC0" stroke-width="3.57143" stroke-linecap="round" stroke-linejoin="round" shape-rendering="crispEdges"/>
</g>
<defs>
<filter id="filter0_d_421_820" x="0.214355" y="0.214264" width="44.5713" height="36.5714" filterUnits="userSpaceOnUse" color-interpolation-filters="sRGB">
<feFlood flood-opacity="0" result="BackgroundImageFix"/>
<feColorMatrix in="SourceAlpha" type="matrix" values="0 0 0 0 0 0 0 0 0 0 0 0 0 0 0 0 0 0 127 0" result="hardAlpha"/>
<feOffset dy="1"/>
<feGaussianBlur stdDeviation="2"/>
<feComposite in2="hardAlpha" operator="out"/>
<feColorMatrix type="matrix" values="0 0 0 0 0 0 0 0 0 0 0 0 0 0 0 0 0 0 0.25 0"/>
<feBlend mode="normal" in2="BackgroundImageFix" result="effect1_dropShadow_421_820"/>
<feBlend mode="normal" in="SourceGraphic" in2="effect1_dropShadow_421_820" result="shape"/>
</filter>
</defs>
</svg>
