<svg width="29" height="27" viewBox="0 0 29 27" fill="none" xmlns="http://www.w3.org/2000/svg">
<path d="M8.18005 21V13.5C8.18005 11.8424 8.86487 10.2527 10.0839 9.08058C11.3028 7.90848 12.9561 7.25 14.6801 7.25C16.404 7.25 18.0573 7.90848 19.2762 9.08058C20.4952 10.2527 21.1801 11.8424 21.1801 13.5V21M8.18005 21H21.1801M8.18005 21C7.49049 21 6.82917 21.2634 6.34158 21.7322C5.85398 22.2011 5.58005 22.837 5.58005 23.5V24.75C5.58005 25.0815 5.71702 25.3995 5.96081 25.6339C6.20461 25.8683 6.53527 26 6.88005 26H22.4801C22.8248 26 23.1555 25.8683 23.3993 25.6339C23.6431 25.3995 23.7801 25.0815 23.7801 24.75V23.5C23.7801 22.837 23.5061 22.2011 23.0185 21.7322C22.5309 21.2634 21.8696 21 21.1801 21M26.3801 13.5H27.6801M23.1301 4.125L22.4801 4.75M1.68005 13.5H2.98005M14.6801 1V2.25M5.48775 4.66125L6.40685 5.545M14.6801 13.5V21" stroke="#ADAFC0" stroke-width="2" stroke-linecap="round" stroke-linejoin="round"/>
</svg>
