<svg width="21" height="21" viewBox="0 0 21 21" fill="none" xmlns="http://www.w3.org/2000/svg">
<path d="M13.6251 4.00404C13.3018 4.00404 12.983 3.92882 12.6938 3.78432L8.30631 1.59057C8.01715 1.44607 7.69832 1.37085 7.37506 1.37085M13.6251 4.00404C13.9483 4.00404 14.2671 3.92882 14.5563 3.78432L18.3678 1.87807C18.5267 1.79865 18.7033 1.76121 18.8808 1.76929C19.0583 1.77737 19.2307 1.83071 19.3818 1.92425C19.5328 2.01778 19.6575 2.1484 19.7438 2.30368C19.8301 2.45896 19.8753 2.63374 19.8751 2.8114V16.1072C19.875 16.3006 19.821 16.4902 19.7193 16.6547C19.6175 16.8191 19.472 16.952 19.299 17.0385L14.5563 19.4104C14.2671 19.5549 13.9483 19.6301 13.6251 19.6301M13.6251 4.00404V19.6301M13.6251 19.6301C13.3018 19.6301 12.983 19.5549 12.6938 19.4104L8.30631 17.2166C8.01715 17.0721 7.69832 16.9969 7.37506 16.9969C7.0518 16.9969 6.73298 17.0721 6.44381 17.2166L2.63236 19.1229C2.47335 19.2023 2.29665 19.2398 2.11908 19.2316C1.94151 19.2235 1.76898 19.1701 1.61789 19.0764C1.46681 18.9828 1.34221 18.852 1.25595 18.6966C1.16968 18.5412 1.12463 18.3662 1.12506 18.1885V4.8937C1.12517 4.7003 1.17911 4.51075 1.28085 4.34627C1.38259 4.1818 1.5281 4.04889 1.70111 3.96245L6.44381 1.59057C6.73298 1.44607 7.0518 1.37085 7.37506 1.37085M7.37506 1.37085V16.9958" stroke="#ADAFC0" stroke-width="2" stroke-linecap="round" stroke-linejoin="round"/>
</svg>
