<svg width="37" height="36" viewBox="0 0 37 36" fill="none" xmlns="http://www.w3.org/2000/svg">
<path d="M18.5591 23.3587C21.9364 23.3587 24.6718 20.7183 24.6718 17.4584V9.34541C24.6718 6.08547 21.9364 3.44507 18.5591 3.44507C15.1818 3.44507 12.4463 6.08547 12.4463 9.34541V17.4584C12.4463 20.7183 15.1818 23.3587 18.5591 23.3587Z" stroke="#F1F1F1" stroke-width="2.19847" stroke-linecap="round" stroke-linejoin="round"/>
<path d="M6.86841 14.7295V17.2371C6.86841 23.462 12.1101 28.5215 18.5591 28.5215C25.008 28.5215 30.2497 23.462 30.2497 17.2371V14.7295" stroke="#F1F1F1" stroke-width="2.19847" stroke-linecap="round" stroke-linejoin="round"/>
<path d="M16.4348 9.97983C17.8102 9.49305 19.3078 9.49305 20.6832 9.97983" stroke="#F1F1F1" stroke-width="2.19847" stroke-linecap="round" stroke-linejoin="round"/>
<path d="M17.3365 13.1068C18.1464 12.9003 18.9869 12.9003 19.7969 13.1068" stroke="#F1F1F1" stroke-width="2.19847" stroke-linecap="round" stroke-linejoin="round"/>
<path d="M18.5591 28.5215V32.9467" stroke="#F1F1F1" stroke-width="2.19847" stroke-linecap="round" stroke-linejoin="round"/>
</svg>
