<svg width="29" height="22" viewBox="0 0 29 22" fill="none" xmlns="http://www.w3.org/2000/svg">
<path d="M22.5201 21C22.5201 18.6425 21.4244 16.3816 19.474 14.7146C17.5236 13.0476 14.8783 12.1111 12.1201 12.1111M12.1201 12.1111C9.36184 12.1111 6.71656 13.0476 4.76618 14.7146C2.8158 16.3816 1.72009 18.6425 1.72009 21M12.1201 12.1111C15.7099 12.1111 18.6201 9.6238 18.6201 6.55556C18.6201 3.48731 15.7099 1 12.1201 1C8.53024 1 5.62009 3.48731 5.62009 6.55556C5.62009 9.6238 8.53024 12.1111 12.1201 12.1111ZM27.7201 19.8889C27.7201 16.1444 25.1201 12.6667 22.5201 11C23.3747 10.452 24.0581 9.73232 24.5098 8.90474C24.9615 8.07717 25.1676 7.16719 25.1097 6.25533C25.0519 5.34348 24.7319 4.45787 24.1782 3.67689C23.6245 2.8959 22.854 2.24362 21.9351 1.77778" stroke="#ADAFC0" stroke-width="2" stroke-linecap="round" stroke-linejoin="round"/>
</svg>
